PathFileType	4	(x/y/z)	S08_PSF_T13
DataRate	CameraRate	NumFrames	NumMarkers	Units	OrigDataRate	OrigDataStartFrame	OrigNumFrames
240	240	8	51	mm	240	317	422
Frame#	Time	Sternum			R.Acromium			L.Acromium			Top.Head			R.ASIS			L.ASIS			R.PSIS			L.PSIS			R.Great.Tro			L.Great.Tro			R.Iliac.Crest			L.Iliac.Crest			V.Sacral			R.Thigh.Upper.Post			R.Thigh.Lower.Ant			R.Thigh.Lower.Post			R.Thigh.Upper.Ant			R.Knee.Lat			R.Knee.Med			R.Shank.Upper.Post			R.Shank.Lower.Ant			R.Shank.Lower.Post			R.Shank.Upper.Ant			R.Ankle.Lat			R.Ankle.Med			R.Heel.Upper			R.Heel.Med			R.Heel.Lat			R.Toe.Lat			R.Toe.Med			R.Toe.Tip			L.Thigh.Upper.Post			L.Thigh.Lower.Ant			L.Thigh.Lower.Post			L.Thigh.Upper.Ant			L.Knee.Lat			L.Knee.Med			L.Shank.Upper.Post			L.Shank.Lower.Ant			L.Shank.Lower.Post			L.Shank.Upper.Ant			L.Ankle.Lat			L.Ankle.Med			L.Heel.Upper			L.Heel.Med			L.Heel.Lat			L.Toe.Lat			L.Toe.Med			L.Toe.Tip			Cervical.Spine			Back			
		X1	Y1	Z1	X2	Y2	Z2	X3	Y3	Z3	X4	Y4	Z4	X5	Y5	Z5	X6	Y6	Z6	X7	Y7	Z7	X8	Y8	Z8	X9	Y9	Z9	X10	Y10	Z10	X11	Y11	Z11	X12	Y12	Z12	X13	Y13	Z13	X14	Y14	Z14	X15	Y15	Z15	X16	Y16	Z16	X17	Y17	Z17	X18	Y18	Z18	X19	Y19	Z19	X20	Y20	Z20	X21	Y21	Z21	X22	Y22	Z22	X23	Y23	Z23	X24	Y24	Z24	X25	Y25	Z25	X26	Y26	Z26	X27	Y27	Z27	X28	Y28	Z28	X29	Y29	Z29	X30	Y30	Z30	X31	Y31	Z31	X32	Y32	Z32	X33	Y33	Z33	X34	Y34	Z34	X35	Y35	Z35	X36	Y36	Z36	X37	Y37	Z37	X38	Y38	Z38	X39	Y39	Z39	X40	Y40	Z40	X41	Y41	Z41	X42	Y42	Z42	X43	Y43	Z43	X44	Y44	Z44	X45	Y45	Z45	X46	Y46	Z46	X47	Y47	Z47	X48	Y48	Z48	X49	Y49	Z49	X50	Y50	Z50	X51	Y51	Z51	

317	1.3167	222.34	1232	323.89	107.07	1470.8	498.08	94.749	1497.5	162.21	105.5	1787.5	343.55	195.6	1012.8	431.71	202.36	1024.6	199.56	-3.8187	1043.3	352.85	2.2749	1052.2	259.48	125.83	899.76	496.22	113.14	919.88	129.62	99.48	1081.9	476.38	108.84	1107.6	168.5	-18.127	1007.6	302.21	144.57	700.93	484.04	239.07	615.47	463.41	167.23	613.8	467.51	223.46	708.27	480.15	215.62	515.88	458.43	204.54	516	325.66	53.823	427.19	464.34	48.926	338.81	444.53	-3.2322	375.1	457.87	106.9	391.35	453.55	-126.78	267.99	427.67	-95.633	250.44	349.77	-173.7	289.42	376.38	-190.24	267.65	347.8	-194.69	274.15	409.78	NaN	NaN	NaN	-100.81	107.53	340.71	-54.833	60.513	386.9	123.39	708.32	148.27	218.81	630.19	176.19	150.62	623.35	168.79	196.19	712.42	149.51	179.82	523.05	192.86	175.58	526.15	317.48	125.19	340.1	194.2	193.14	255.06	221.45	122.9	267.91	211.97	189.34	329.61	203.35	144.96	97.919	234.63	168.74	105.58	320.01	92.589	74.8	284.62	107.49	40.863	315.28	99.97	47.691	251.53	276.3	40.553	215.77	296.15	43.217	330.95	358.88	62.213	281.59	34.25	1527.6	325.34	-13.374	1243.7	334.29
318	1.3208	227.35	1232.6	323.88	111.99	1471.4	497.98	99.959	1498.2	162.14	110.79	1788	343.51	200.57	1013.6	431.56	207.42	1025.1	199.45	1.1551	1043.9	352.58	7.3586	1052.7	259.25	131.21	900.65	496.11	117.98	920.36	129.48	104.37	1082.7	476.2	113.97	1108.1	168.32	-13.077	1008.2	301.94	152.44	702	483.99	247.87	617.58	463.17	176.01	615.1	467.36	231.29	710.17	479.95	225.45	517.71	458.21	214.14	517.74	325.45	64.436	427.53	464.42	60.354	339.11	444.56	7.903	374.88	458.03	117.83	392.21	453.48	-114.86	266.6	427.76	-83.522	249.43	350.05	-162.74	286.64	376.6	-178.72	264.28	348.15	-183.23	270.99	410.07	NaN	NaN	NaN	-85.345	106.5	341.76	-38.157	60.928	388.15	126.81	708.86	148.16	221.64	630.01	176.17	153.45	623.66	168.62	199.63	712.43	149.51	181.79	523.05	192.84	177.72	526.17	317.43	126.21	340.33	194.19	193.85	255	221.48	123.66	268.13	212.02	190.34	329.57	203.34	145.12	98.009	234.73	168.85	105.61	320.09	92.621	74.826	284.62	107.46	40.895	315.27	100	47.773	251.54	276.34	40.487	215.75	296.23	43.036	330.98	358.98	61.912	281.58	39.356	1528.2	325.18	-8.3681	1244.4	333.98
319	1.325	232.35	1233.2	323.87	116.92	1472.1	497.89	105.16	1498.8	162.07	116.09	1788.6	343.47	205.53	1014.4	431.42	212.47	1025.7	199.33	6.1207	1044.5	352.31	12.431	1053.2	259.03	136.59	901.55	496.01	122.83	920.81	129.34	109.26	1083.4	476.02	119.08	1108.6	168.14	-8.0303	1008.8	301.69	160.26	703.1	483.98	256.59	619.7	462.93	184.71	616.42	467.25	239.04	712.08	479.75	235.18	519.55	457.98	223.63	519.49	325.25	74.989	427.77	464.48	71.805	339.31	444.6	19.029	374.52	458.2	128.73	393.02	453.41	-102.82	264.95	427.86	-71.294	248.18	350.33	-151.65	283.55	376.82	-167.04	260.59	348.52	-171.62	267.51	410.38	NaN	NaN	NaN	-69.666	105.32	342.78	-21.267	61.249	389.37	130.23	709.39	148.05	224.46	629.81	176.16	156.28	623.95	168.45	203.07	712.44	149.53	183.75	523.06	192.83	179.86	526.18	317.38	127.21	340.56	194.19	194.55	254.95	221.52	124.42	268.35	212.07	191.33	329.53	203.34	145.27	98.109	234.82	168.95	105.65	320.16	92.652	74.855	284.63	107.43	40.925	315.25	100.03	47.855	251.54	276.39	40.427	215.74	296.3	42.859	331.01	359.08	61.623	281.57	44.458	1528.8	325.03	-3.3711	1245	333.68
320	1.3292	237.33	1233.8	323.86	121.85	1472.6	497.79	110.34	1499.4	162.01	121.38	1789.1	343.43	210.49	1015.2	431.27	217.51	1026.2	199.21	11.078	1045	352.06	17.491	1053.7	258.81	141.97	902.44	495.93	127.68	921.23	129.2	114.16	1084.1	475.85	124.16	1109.1	167.96	-2.9884	1009.3	301.46	168.03	704.2	484	265.22	621.83	462.67	193.34	617.76	467.18	246.72	714	479.53	244.79	521.4	457.74	232.99	521.26	325.07	85.482	427.9	464.52	83.277	339.41	444.63	30.146	374.01	458.35	139.59	393.76	453.32	-90.679	263.03	427.97	-58.95	246.71	350.59	-140.41	280.15	377.06	-155.2	256.61	348.91	-159.84	263.73	410.71	NaN	NaN	NaN	-53.79	104	343.79	-4.1777	61.49	390.55	133.66	709.89	147.96	227.27	629.61	176.17	159.11	624.24	168.29	206.5	712.44	149.57	185.69	523.05	192.83	181.98	526.18	317.33	128.21	340.79	194.19	195.25	254.89	221.56	125.17	268.57	212.13	192.31	329.49	203.35	145.42	98.22	234.9	169.03	105.68	320.23	92.681	74.885	284.65	107.38	40.954	315.23	100.06	47.936	251.55	276.43	40.373	215.73	296.37	42.686	331.03	359.18	61.345	281.57	49.555	1529.3	324.88	1.6177	1245.6	333.4
321	1.3333	242.3	1234.4	323.83	126.79	1473.2	497.7	115.52	1500	161.95	126.68	1789.7	343.4	215.43	1016	431.12	222.54	1026.6	199.09	16.027	1045.5	351.81	22.538	1054.1	258.6	147.35	903.33	495.85	132.54	921.62	129.07	119.05	1084.7	475.68	129.23	1109.6	167.79	2.0485	1009.8	301.23	175.73	705.3	484.06	273.76	623.96	462.4	201.9	619.11	467.16	254.32	715.91	479.31	254.27	523.24	457.49	242.21	523.03	324.89	95.915	427.92	464.55	94.766	339.41	444.67	41.256	373.36	458.51	150.42	394.44	453.24	-78.419	260.86	428.1	-46.492	245.01	350.85	-129.02	276.45	377.32	-143.19	252.35	349.33	-147.9	259.66	411.07	NaN	NaN	NaN	-37.724	102.56	344.78	13.098	61.662	391.69	137.08	710.37	147.86	230.08	629.4	176.2	161.93	624.51	168.13	209.93	712.43	149.63	187.63	523.04	192.83	184.07	526.18	317.29	129.2	341.01	194.19	195.94	254.83	221.61	125.91	268.79	212.19	193.27	329.45	203.36	145.55	98.342	234.97	169.09	105.71	320.3	92.71	74.918	284.66	107.33	40.982	315.21	100.09	48.017	251.56	276.47	40.325	215.72	296.44	42.516	331.05	359.27	61.077	281.56	54.649	1529.9	324.74	6.5995	1246.2	333.13
322	1.3375	247.26	1234.9	323.8	131.73	1473.8	497.61	120.69	1500.6	161.9	131.98	1790.1	343.37	220.37	1016.8	430.96	227.56	1027.1	198.95	20.968	1046	351.58	27.571	1054.5	258.4	152.73	904.21	495.79	137.39	921.97	128.95	123.95	1085.4	475.51	134.27	1110	167.62	7.0798	1010.3	301.02	183.37	706.41	484.16	282.21	626.08	462.12	210.38	620.47	467.17	261.85	717.8	479.08	263.63	525.08	457.23	251.3	524.81	324.74	106.29	427.84	464.57	106.27	339.31	444.7	52.36	372.57	458.66	161.2	395.05	453.16	-66.04	258.45	428.25	-33.922	243.11	351.11	-117.48	272.45	377.6	-131.01	247.81	349.77	-135.77	255.31	411.46	NaN	NaN	NaN	-21.476	101.02	345.73	30.546	61.778	392.78	140.51	710.83	147.78	232.88	629.18	176.23	164.75	624.78	167.98	213.36	712.41	149.71	189.56	523.03	192.84	186.13	526.18	317.25	130.19	341.23	194.2	196.62	254.77	221.68	126.65	269	212.24	194.23	329.4	203.39	145.67	98.475	235.02	169.14	105.73	320.37	92.738	74.953	284.69	107.28	41.007	315.19	100.12	48.096	251.57	276.52	40.283	215.71	296.52	42.347	331.07	359.36	60.818	281.56	59.741	1530.4	324.6	11.575	1246.8	332.86
323	1.3417	252.21	1235.4	323.76	136.68	1474.3	497.52	125.85	1501.1	161.86	137.27	1790.6	343.35	225.3	1017.5	430.8	232.57	1027.5	198.81	25.902	1046.5	351.36	32.589	1054.9	258.21	158.11	905.07	495.74	142.25	922.27	128.84	128.85	1086	475.35	139.29	1110.4	167.45	12.105	1010.7	300.82	190.95	707.51	484.29	290.55	628.18	461.84	218.77	621.83	467.22	269.31	719.69	478.85	272.87	526.9	456.96	260.24	526.58	324.59	116.61	427.64	464.58	117.79	339.12	444.73	63.459	371.64	458.81	171.95	395.59	453.07	-53.54	255.8	428.42	-21.236	240.99	351.35	-105.77	268.18	377.9	-118.64	243.01	350.24	-123.46	250.68	411.88	NaN	NaN	NaN	-5.0521	99.373	346.65	48.155	61.85	393.82	143.94	711.27	147.7	235.67	628.95	176.28	167.57	625.03	167.84	216.78	712.38	149.79	191.49	523	192.85	188.15	526.17	317.23	131.18	341.44	194.22	197.31	254.71	221.75	127.4	269.21	212.3	195.19	329.36	203.42	145.79	98.616	235.08	169.17	105.75	320.44	92.768	74.989	284.72	107.22	41.03	315.16	100.16	48.175	251.58	276.55	40.248	215.7	296.59	42.181	331.09	359.44	60.567	281.56	64.833	1530.9	324.48	16.545	1247.3	332.61
324	1.3458	257.15	1235.9	323.72	141.64	1474.8	497.43	131	1501.6	161.82	142.57	1791	343.32	230.23	1018.2	430.64	237.56	1027.9	198.66	30.827	1046.9	351.16	37.594	1055.2	258.03	163.48	905.92	495.7	147.1	922.54	128.75	133.74	1086.6	475.19	144.28	1110.7	167.29	17.122	1011.1	300.65	198.47	708.61	484.46	298.8	630.26	461.56	227.09	623.18	467.3	276.69	721.55	478.62	281.97	528.7	456.68	269.02	528.35	324.47	126.87	427.33	464.57	129.32	338.83	444.76	74.556	370.59	458.95	182.66	396.07	452.98	-40.914	252.93	428.61	-8.4342	238.68	351.59	-93.901	263.65	378.22	-106.1	237.97	350.72	-110.97	245.8	412.33	NaN	NaN	NaN	11.543	97.65	347.55	65.911	61.889	394.8	147.36	711.68	147.63	238.46	628.71	176.34	170.38	625.26	167.72	220.19	712.32	149.89	193.41	522.97	192.88	190.14	526.15	317.22	132.17	341.64	194.24	197.99	254.65	221.83	128.14	269.43	212.36	196.14	329.31	203.46	145.9	98.766	235.12	169.19	105.76	320.51	92.798	75.028	284.76	107.16	41.05	315.14	100.19	48.253	251.6	276.59	40.218	215.7	296.66	42.016	331.1	359.53	60.325	281.56	69.925	1531.3	324.36	21.511	1247.8	332.37
